<?xml version="1.0" encoding="UTF-8" standalone="no"?>
<!-- Created with Inkscape (http://www.inkscape.org/) -->

<svg
   width="15.875mm"
   height="15.875mm"
   viewBox="0 0 15.875 15.875"
   version="1.1"
   id="svg5"
   inkscape:version="1.1.1 (1:1.1+202109281949+c3084ef5ed)"
   sodipodi:docname="button-repeat.svg"
   xmlns:inkscape="http://www.inkscape.org/namespaces/inkscape"
   xmlns:sodipodi="http://sodipodi.sourceforge.net/DTD/sodipodi-0.dtd"
   xmlns="http://www.w3.org/2000/svg"
   xmlns:svg="http://www.w3.org/2000/svg">
  <sodipodi:namedview
     id="namedview7"
     pagecolor="#505050"
     bordercolor="#eeeeee"
     borderopacity="1"
     inkscape:pageshadow="0"
     inkscape:pageopacity="0"
     inkscape:pagecheckerboard="0"
     inkscape:document-units="mm"
     showgrid="false"
     inkscape:zoom="0.74118967"
     inkscape:cx="675.26575"
     inkscape:cy="270.51105"
     inkscape:window-width="1920"
     inkscape:window-height="1009"
     inkscape:window-x="0"
     inkscape:window-y="0"
     inkscape:window-maximized="1"
     inkscape:current-layer="layer1" />
  <defs
     id="defs2" />
  <g
     inkscape:label="Warstwa 1"
     inkscape:groupmode="layer"
     id="layer1"
     transform="translate(182.99761,-48.436837)">
    <ellipse
       style="fill:#800000;fill-opacity:0;stroke-width:0.264583"
       id="path35553"
       cx="-120.62781"
       cy="45.636089"
       rx="4.8514113"
       ry="9.7028227" />
    <path
       id="path35599"
       style="fill:#a5a5ca;fill-opacity:0.917647;stroke-width:0.0444272"
       d="m -175.06007,48.436837 a 7.9374918,7.9374918 0 0 0 -7.93754,7.937543 7.9374918,7.9374918 0 0 0 7.93754,7.937457 7.9374918,7.9374918 0 0 0 7.93746,-7.937457 7.9374918,7.9374918 0 0 0 -7.93746,-7.937543 z m -3.04812,2.896878 0.59543,1.031457 0.59551,1.031371 -0.22283,0.128683 c -0.51389,0.296695 -1.02207,0.838897 -1.31234,1.400324 -0.4557,0.881414 -0.52927,1.848159 -0.21719,2.852712 0.0904,0.290907 0.4855,0.973484 0.70086,1.210728 0.51975,0.572554 1.15852,0.957397 1.87714,1.130984 0.5732,0.138519 1.1659,0.138011 1.71053,-0.0015 0.4451,-0.113996 0.58912,-0.172119 0.95597,-0.385527 0.51034,-0.296947 0.83693,-0.598102 1.16369,-1.072935 0.76834,-1.116515 0.8574,-2.499511 0.24019,-3.729975 l -0.12035,-0.239924 -0.86668,0.49243 -0.86677,0.492517 0.48888,-2.146909 c 0.26887,-1.18077 0.49649,-2.152945 0.50588,-2.160446 0.009,-0.0075 0.95747,0.277394 2.1069,0.633087 l 2.0899,0.646711 -0.7215,0.431603 -0.72142,0.43169 0.14924,0.295372 c 0.83526,1.652537 0.83694,3.586265 0.005,5.258462 -0.39666,0.79692 -1.03915,1.565583 -1.7429,2.085215 -0.23112,0.170654 -0.85707,0.533204 -1.12777,0.653218 -1.02856,0.456016 -2.16605,0.604554 -3.28128,0.42848 -0.37501,-0.05921 -1.05109,-0.250009 -1.37516,-0.388044 -1.24475,-0.530196 -2.27229,-1.473643 -2.89705,-2.660079 -0.70131,-1.331818 -0.86729,-2.793999 -0.48167,-4.243144 0.21703,-0.815632 0.53247,-1.459514 1.02729,-2.097102 0.43576,-0.561489 1.0547,-1.111976 1.61257,-1.434166 z" />
  </g>
</svg>
