<?xml version="1.0" encoding="UTF-8" standalone="no"?>
<!-- Created with Inkscape (http://www.inkscape.org/) -->

<svg
   width="41.010418mm"
   height="41.010418mm"
   viewBox="0 0 41.010418 41.010418"
   version="1.1"
   id="svg5"
   inkscape:version="1.1.1 (1:1.1+202109281949+c3084ef5ed)"
   sodipodi:docname="unknown-cover.svg"
   xmlns:inkscape="http://www.inkscape.org/namespaces/inkscape"
   xmlns:sodipodi="http://sodipodi.sourceforge.net/DTD/sodipodi-0.dtd"
   xmlns="http://www.w3.org/2000/svg"
   xmlns:svg="http://www.w3.org/2000/svg">
  <sodipodi:namedview
     id="namedview7"
     pagecolor="#505050"
     bordercolor="#eeeeee"
     borderopacity="1"
     inkscape:pageshadow="0"
     inkscape:pageopacity="0"
     inkscape:pagecheckerboard="0"
     inkscape:document-units="mm"
     showgrid="false"
     inkscape:zoom="1.0482005"
     inkscape:cx="-60.580013"
     inkscape:cy="208.45249"
     inkscape:window-width="1920"
     inkscape:window-height="1009"
     inkscape:window-x="0"
     inkscape:window-y="0"
     inkscape:window-maximized="1"
     inkscape:current-layer="layer1" />
  <defs
     id="defs2" />
  <g
     inkscape:label="Warstwa 1"
     inkscape:groupmode="layer"
     id="layer1"
     transform="translate(-72.839481,-72.46431)">
    <path
       id="rect846"
       style="fill:#404040;stroke-width:0.867946;fill-opacity:1"
       d="m 275.29883,273.88086 v 155 h 155 v -155 z m 77.89453,8.85352 c 2.05323,-0.0131 3.95182,0.0285 5.21875,0.13867 18.5937,1.61629 35.34412,10.30193 47.11523,24.43164 16.12498,19.3559 20.34523,45.8251 11.07813,69.46875 -0.86876,2.21658 -3.05679,6.72266 -4.38477,9.02734 -4.73072,8.20963 -11.82095,15.99881 -19.56445,21.4961 -7.57293,5.37622 -15.86703,9.07792 -24.81836,11.07812 -5.92368,1.32367 -13.11582,1.91213 -18.98437,1.55273 -13.42537,-0.82204 -26.15617,-5.37598 -36.625,-13.10156 -4.44257,-3.27832 -9.70076,-8.30344 -13.01368,-12.43945 -8.77874,-10.95988 -13.81776,-23.7118 -14.94336,-37.81445 -0.22681,-2.84101 -0.12019,-10.34761 0.18164,-12.81446 1.02025,-8.3377 3.11346,-15.52155 6.58399,-22.5957 3.60305,-7.34434 7.90684,-13.25677 13.90234,-19.10156 5.44326,-5.30641 11.0198,-9.21322 17.91016,-12.54883 6.66287,-3.22546 13.50563,-5.27648 21.00391,-6.29688 2.06658,-0.28123 5.91779,-0.45869 9.33984,-0.48046 z m -0.55859,4.02734 c -6.17246,0.003 -8.16982,0.17867 -12.78711,1.125 -18.80259,3.85351 -34.8513,15.7255 -44.0293,32.57226 -3.78254,6.94302 -6.19781,14.49024 -7.34766,22.95508 -0.45304,3.33361 -0.45304,12.48671 0,15.82032 0.8609,6.33764 2.35092,11.91807 4.61524,17.28124 7.83037,18.54651 24.22315,32.67691 43.55859,37.54883 5.06317,1.27578 8.74438,1.76313 15.56055,2.05664 0.33101,0.0189 2.04921,-0.05 3.81836,-0.14453 13.7978,-0.72563 26.22569,-5.40197 37.01953,-13.92968 2.86949,-2.26719 8.13527,-7.53094 10.40234,-10.4004 7.63125,-9.65896 12.15597,-20.63025 13.68555,-33.18554 0.40656,-3.33729 0.40656,-10.93615 0,-14.27344 -1.52927,-12.55286 -6.0446,-23.50162 -13.68359,-33.18555 -2.24349,-2.84408 -7.85099,-8.43389 -10.57618,-10.54297 -9.56254,-7.40068 -20.07389,-11.79059 -32.06836,-13.39257 -1.85663,-0.24798 -3.49202,-0.30756 -8.16796,-0.30469 z m 0.23437,2.04101 c 3.1113,6e-4 6.20203,0.11154 7.76172,0.33204 11.96682,1.69002 22.23894,6.03782 31.2832,13.24218 2.64956,2.11061 7.66889,7.10468 9.70703,9.65821 5.68207,7.11864 9.80907,15.4701 11.97266,24.22851 2.84307,11.50932 2.36613,23.5756 -1.375,34.83594 -2.45246,7.38171 -5.75501,13.42092 -10.81055,19.77344 -1.69179,2.12579 -7.03875,7.4691 -9.18945,9.18164 -9.2826,7.39143 -19.51343,11.76823 -31.41602,13.44336 -1.8955,0.26683 -11.54983,0.48919 -13.32617,0.30664 -7.04712,-0.72374 -13.0713,-2.21957 -19.07031,-4.73242 -11.89435,-4.98244 -22.21762,-13.84157 -29.02148,-24.90625 -8.97147,-14.58964 -11.56988,-32.33434 -7.16993,-48.96094 2.82617,-10.67971 8.43896,-20.39565 16.31836,-28.24414 9.93226,-9.8934 22.28473,-15.93517 36.45118,-17.83008 1.64249,-0.21969 4.77346,-0.32873 7.88476,-0.32813 z m -26.06445,7.8418 c -0.038,0 -0.98334,0.46414 -2.09571,1.03125 -10.52289,5.36492 -20.3725,15.20302 -25.55273,25.52344 -0.51893,1.03357 -0.94336,1.96644 -0.94336,2.07422 0,0.16762 0.90468,0.73075 1.22656,0.76367 0.0588,0.007 0.42737,-0.65618 0.81836,-1.4707 4.92477,-10.26354 14.96296,-20.37878 25.34961,-25.54493 0.96355,-0.47923 1.78382,-0.90088 1.82227,-0.93554 0.0799,-0.072 -0.51366,-1.44141 -0.625,-1.44141 z m 1.56445,3.43945 c -0.2835,0 -3.12363,1.44685 -4.70703,2.39844 -8.10344,4.87003 -14.77625,11.53901 -19.66797,19.65625 -1.15989,1.92464 -2.59988,4.75564 -2.47266,4.85938 0.18305,0.14936 1.11121,0.58428 1.25782,0.58984 0.0999,0.003 0.42469,-0.53825 0.7207,-1.20508 1.32453,-2.98098 4.94451,-8.34135 7.83008,-11.59765 4.566,-5.15259 10.8468,-10.01567 16.3418,-12.65235 l 1.48046,-0.71093 -0.34179,-0.66993 c -0.18792,-0.36805 -0.38635,-0.66797 -0.44141,-0.66797 z m 1.6582,3.28711 -1.10351,0.5 c -6.46831,2.93287 -14.03004,9.30599 -18.9668,15.98633 -1.96036,2.6527 -5.03711,7.89961 -5.03711,8.58985 0,0.0942 0.29031,0.32033 0.64453,0.50195 l 0.64258,0.33008 1.12109,-2.17383 c 0.61672,-1.196 1.57396,-2.86788 2.12696,-3.71485 3.76466,-5.76558 8.93895,-11.06028 14.35742,-14.6914 1.98607,-1.33097 4.60254,-2.85713 5.82031,-3.39453 0.54593,-0.24095 1.01859,-0.46282 1.04883,-0.49219 0.0321,-0.0291 -0.10441,-0.36612 -0.29883,-0.74805 z m 1.50977,3.41797 c -0.0788,0 -0.8501,0.3557 -1.71289,0.78906 -4.61968,2.32016 -9.8614,6.35222 -13.50586,10.38868 -2.81694,3.11989 -5.70911,7.21922 -7.26367,10.29882 -0.95059,1.88308 -0.94771,1.85909 -0.21875,2.24415 0.35206,0.18587 0.65225,0.34147 0.66797,0.3457 0.0162,0.003 0.50305,-0.89392 1.08203,-1.99609 v -0.002 c 2.40347,-4.576 5.26613,-8.31451 9.46289,-12.36133 2.84604,-2.74436 6.83108,-5.59219 10.3164,-7.375 1.0425,-0.53323 1.89454,-1.00277 1.89454,-1.04297 0,-0.21732 -0.60068,-1.28906 -0.72266,-1.28906 z m 1.64258,3.23633 -1.84375,0.95313 c -7.06932,3.6577 -13.59333,9.85078 -17.77735,16.875 -1.04363,1.75208 -1.93164,3.5197 -1.93164,3.84179 0,0.14756 1.04723,0.71133 1.22657,0.66016 0.0605,-0.0174 0.51034,-0.80624 1,-1.75195 3.23553,-6.25006 8.71402,-12.22744 14.88086,-16.23633 1.04028,-0.67628 2.60808,-1.59369 3.48242,-2.03907 0.87439,-0.44537 1.58554,-0.88785 1.58203,-0.98242 -0.003,-0.0945 -0.14397,-0.42999 -0.3125,-0.74609 z m 1.51562,3.4707 c -0.34934,0 -3.40104,1.69481 -5.10156,2.83399 -5.1042,3.41929 -9.36313,7.79534 -12.47852,12.81836 -0.81499,1.31411 -2.22265,3.97136 -2.22265,4.19726 0,0.11025 1.02664,0.5771 1.31445,0.59766 0.10802,0.008 0.32646,-0.31483 0.48633,-0.7168 0.94308,-2.37204 4.14557,-6.89903 6.91602,-9.77539 3.18067,-3.30231 7.02979,-6.21484 10.45507,-7.91211 l 1.44532,-0.71484 -0.33985,-0.66406 c -0.18629,-0.36518 -0.39955,-0.66407 -0.47461,-0.66407 z m 1.77735,3.29883 c -0.10908,-0.11701 -3.18322,1.53717 -4.64258,2.49805 -4.5876,3.02069 -8.72794,7.24203 -11.50196,11.72656 -1.08811,1.75909 -1.99609,3.51379 -1.99609,3.85938 0,0.13443 0.28895,0.36082 0.64258,0.50195 l 0.64258,0.25586 0.86914,-1.65625 c 0.47788,-0.91118 1.26411,-2.24309 1.74805,-2.95899 3.25405,-4.81414 7.26609,-8.58686 12.08789,-11.36914 0.89842,-0.51843 1.886,-1.04274 2.19335,-1.16406 0.30724,-0.12132 0.5586,-0.23944 0.5586,-0.26367 0,-0.0712 -0.54681,-1.37081 -0.60156,-1.42969 z m 1.46679,3.40625 c -0.34178,0 -2.48637,1.15992 -4.04687,2.18945 -4.84615,3.19724 -8.82738,7.50435 -11.48438,12.42579 -0.89735,1.66219 -0.91058,1.77959 -0.25195,2.10742 0.30833,0.15333 0.64999,0.28301 0.75977,0.28906 0.1096,0.007 0.67931,-0.89855 1.26562,-2.00977 1.52448,-2.88945 2.69945,-4.46324 5.24024,-7.01757 2.6815,-2.69574 4.43814,-4.02242 7.16015,-5.41016 1.12155,-0.57181 2.03906,-1.11698 2.03906,-1.21094 0,-0.35414 -0.5043,-1.36328 -0.68164,-1.36328 z m 1.71289,3.44141 c -0.51657,0.0816 -3.65549,1.80066 -5.03711,2.77734 -3.38921,2.39586 -6.49913,5.89629 -8.42968,9.49024 -0.63114,1.17501 -1.14844,2.18305 -1.14844,2.23828 0,0.074 1.09648,0.72832 1.31836,0.78711 0.0162,0.003 0.49886,-0.87234 1.07226,-1.94922 0.57347,-1.0769 1.51281,-2.59351 2.08789,-3.36914 2.27928,-3.07406 5.86434,-6.13018 9.06446,-7.72657 l 1.76367,-0.8789 -0.26367,-0.63477 c -0.14578,-0.34854 -0.30695,-0.67645 -0.35938,-0.72851 -0.01,-0.01 -0.0339,-0.0113 -0.0684,-0.006 z m 1.58008,3.26562 c -0.0486,0 -0.90723,0.43589 -1.9082,0.96875 -2.24828,1.19682 -4.10136,2.62646 -6.125,4.72657 -1.81581,1.88443 -2.78227,3.2142 -4.00977,5.51757 l -0.89062,1.67188 0.64844,0.3418 c 0.35637,0.1881 0.68511,0.34286 0.73242,0.3457 0.0486,0.003 0.47456,-0.74139 0.94726,-1.6543 2.04039,-3.93922 5.70552,-7.61454 9.56641,-9.59375 0.88552,-0.45396 1.64124,-0.8517 1.67969,-0.88476 0.0875,-0.0752 -0.51978,-1.43946 -0.64063,-1.43946 z m 11.43555,5.10938 c -1.35186,0.003 -2.68738,0.10017 -3.58008,0.29101 -6.07315,1.29534 -10.78658,4.85401 -13.53516,10.21875 -1.48468,2.89793 -2.08593,5.43314 -2.08593,8.79688 0,2.31391 0.18945,3.66634 0.79492,5.66992 1.92823,6.38075 7.21056,11.43173 13.68945,13.08594 2.47006,0.63063 4.31832,0.76035 6.8711,0.48437 v -0.002 c 8.74904,-0.94585 15.76353,-7.64539 17.08007,-16.31445 1.5677,-10.32306 -5.24807,-19.94321 -15.55664,-21.95508 -0.95753,-0.18686 -2.32587,-0.27808 -3.67773,-0.27539 z m 0.11719,14.87109 c 1.25032,-0.012 2.39549,0.52708 3.32422,1.58203 1.03158,1.17196 1.34816,2.70198 0.88085,4.26172 -0.25867,0.8631 -1.35741,2.11384 -2.26367,2.57617 -0.90479,0.46158 -2.54345,0.56664 -3.47265,0.22266 -3.97807,-1.4726 -3.80675,-7.2582 0.25,-8.44531 0.43591,-0.12756 0.86447,-0.19327 1.28125,-0.19727 z m 22.98828,15.29883 -0.90821,1.71094 c -2.14222,4.04537 -5.4981,7.39985 -9.54687,9.54101 -0.87391,0.46214 -1.58887,0.90063 -1.58984,0.97461 -0.003,0.19801 0.4844,1.32617 0.57226,1.32617 0.0433,0 0.92019,-0.44817 1.95313,-0.99609 1.03288,-0.54787 2.37511,-1.375 2.98437,-1.83789 1.5418,-1.17137 4.04983,-3.7097 5.18164,-5.24609 0.88503,-1.20143 2.72073,-4.41078 2.7168,-4.75 -0.001,-0.0828 -0.3091,-0.28016 -0.6836,-0.4375 z m 3.4375,1.68945 c -0.0831,0 -0.59131,0.83102 -1.12891,1.84766 -1.28533,2.43097 -2.1883,3.67341 -4.18945,5.76172 -2.1298,2.22252 -4.1818,3.80245 -6.64649,5.11719 -1.08418,0.57832 -1.97265,1.07607 -1.97265,1.10546 0,0.26605 0.56215,1.29883 0.70703,1.29883 0.10261,0 1.12389,-0.50876 2.26758,-1.13086 2.49872,-1.35915 3.94778,-2.45264 6.19726,-4.67578 2.17166,-2.14624 3.7613,-4.26181 5.07813,-6.75781 l 1.05078,-1.98828 -0.60742,-0.28906 c -0.33336,-0.15878 -0.67275,-0.28907 -0.75586,-0.28907 z m 3.20312,1.5586 c -0.0302,0.0415 -0.55559,1.02548 -1.1582,2.1875 -1.34268,2.58916 -2.80653,4.56785 -5.0625,6.8457 -2.29102,2.31334 -4.43848,3.92616 -7.09375,5.32617 -1.20557,0.63568 -2.21094,1.17012 -2.23438,1.1875 -0.12529,0.0926 0.59089,1.46146 0.76563,1.46289 0.11391,10e-4 0.80423,-0.31247 1.53516,-0.69726 5.86787,-3.09041 11.32698,-8.64644 14.3164,-14.56836 l 0.53906,-1.07031 -0.77148,-0.375 c -0.42512,-0.20648 -0.80139,-0.34026 -0.83594,-0.29883 z m 3.5,1.53125 -0.71094,1.42187 c -1.63037,3.25614 -3.91103,6.2794 -6.9746,9.24805 -2.82446,2.73697 -5.49961,4.68704 -8.48829,6.18555 -0.61177,0.30652 -1.14514,0.58598 -1.18359,0.62109 -0.0871,0.079 0.51848,1.44336 0.64063,1.44336 0.0486,0 0.83003,-0.39648 1.73632,-0.88086 5.69636,-3.0435 10.89404,-7.90524 14.26953,-13.34766 0.77058,-1.24238 2.08008,-3.70025 2.08008,-3.90429 0,-0.0475 -0.30907,-0.24539 -0.68554,-0.4375 z m 3.49414,1.73242 c -0.10771,-0.003 -0.51881,0.64124 -0.91211,1.43555 -3.32927,6.7207 -10.19573,13.55492 -17.06445,16.98242 -0.73853,0.3685 -1.34375,0.70253 -1.34375,0.74414 0,0.21921 0.60184,1.29101 0.72461,1.29101 0.0786,0 0.8189,-0.33868 1.64453,-0.7539 6.91897,-3.48004 13.87795,-10.45692 17.42969,-17.47071 l 0.82617,-1.63085 -0.55273,-0.29493 c -0.30501,-0.16267 -0.64367,-0.2988 -0.75196,-0.30273 z m 3.23438,1.55273 c -0.0401,-0.008 -0.0647,-0.008 -0.0703,0.002 -0.0227,0.0384 -0.4296,0.84334 -0.90235,1.78711 -2.7967,5.58158 -8.03345,11.53 -13.49804,15.33398 -1.96139,1.36535 -4.22353,2.72054 -5.44532,3.25977 -0.55083,0.24302 -1.02641,0.46642 -1.05664,0.49609 -0.031,0.0265 0.10392,0.36556 0.29883,0.74805 l 0.35547,0.69531 0.81836,-0.35938 c 0.44981,-0.19767 1.43675,-0.70633 2.19336,-1.13281 l -0.002,-0.002 c 3.99553,-2.25241 8.02699,-5.46128 11.06055,-8.80469 2.64389,-2.9139 5.42715,-6.85607 6.86719,-9.72656 0.83346,-1.66135 0.83285,-1.69363 0.043,-2.05078 -0.28537,-0.12878 -0.54176,-0.22358 -0.66211,-0.2461 z m 3.41406,1.55469 c -0.043,-0.007 -0.0737,-0.002 -0.0879,0.0156 -0.0227,0.0265 -0.47462,0.90228 -1.00391,1.94335 -1.14478,2.25139 -3.08029,5.21084 -4.88672,7.47266 -1.54027,1.92858 -5.26206,5.6888 -7.0957,7.16992 -2.05383,1.65903 -5.45326,3.91208 -7.625,5.05274 -1.10109,0.57838 -2.00195,1.12544 -2.00195,1.21679 0,0.0915 0.1204,0.40006 0.26758,0.6836 0.32613,0.63061 0.41715,0.61032 2.65625,-0.56836 5.04091,-2.65406 10.4605,-7.07884 14.38672,-11.74414 2.48341,-2.95109 6.58984,-9.4572 6.58984,-10.44141 0,-0.18176 -0.89842,-0.75376 -1.19922,-0.80078 z m 3.28516,1.53125 -0.92578,1.8457 c -4.42122,8.81669 -12.71855,17.16693 -21.48829,21.62696 -1.06618,0.54228 -1.96936,1.01342 -2.00781,1.04687 -0.0862,0.0752 0.51731,1.44141 0.63672,1.44141 0.0486,0 1.02851,-0.49199 2.17774,-1.0918 8.02736,-4.19002 15.26505,-10.95497 20.1914,-18.87305 0.97599,-1.56862 2.76953,-4.93996 2.76953,-5.20507 0,-0.0553 -0.30515,-0.25554 -0.67773,-0.44532 z m 3.40039,1.75 c -0.0447,-0.004 -0.0757,10e-4 -0.0918,0.0176 -0.0397,0.0398 -0.37204,0.69191 -0.73828,1.44922 -2.97233,6.14639 -8.75227,13.22225 -14.62891,17.91015 -2.99773,2.39139 -7.01643,4.96416 -9.58593,6.13672 -0.68567,0.31295 -1.2461,0.60877 -1.2461,0.65821 0,0.20522 0.58931,1.30468 0.69922,1.30468 0.0654,0 0.5737,-0.20366 1.12891,-0.45507 2.55738,-1.15544 6.24574,-3.4837 9.51953,-6.00782 2.33896,-1.80332 7.48096,-6.87279 9.31445,-9.18359 1.6131,-2.03308 3.57293,-4.89389 4.86133,-7.09766 0.99231,-1.69735 1.98828,-3.74364 1.98828,-4.08398 0,-0.16668 -0.90781,-0.62314 -1.2207,-0.64844 z m 3.27539,1.53711 -0.79102,1.57812 c -3.61621,7.22578 -9.16064,13.99741 -15.79492,19.29102 -3.02287,2.41206 -7.2065,5.08494 -10.05078,6.42188 l -1.35938,0.64062 0.32422,0.72266 0.32227,0.72461 1.3418,-0.61133 c 0.73768,-0.336 1.96024,-0.96948 2.71679,-1.4082 9.214,-5.34346 16.66325,-12.63257 22.00391,-21.53321 1.08862,-1.81425 2.35762,-4.24679 2.56641,-4.91992 0.0933,-0.30051 -0.004,-0.40451 -0.58399,-0.63281 z"
       transform="scale(0.26458333)"
       inkscape:export-filename="/home/wojciech/Dokumenty/radio/src/assets/images/unknown-cover.png"
       inkscape:export-xdpi="96"
       inkscape:export-ydpi="96" />
  </g>
</svg>
