<svg width="360" height="800" viewBox="0 0 360 800" fill="none" xmlns="http://www.w3.org/2000/svg">
<rect width="360" height="800" fill="#404040"/>
<g clip-path="url(#clip0_34_2)">
<path d="M100.072 386.787C94.6396 385.063 88.7468 380.633 86.7483 376.768C82.5574 368.664 83.4957 359.63 89.3174 352.037C99.68 338.522 101.382 334.197 98.0188 329.921C95.9016 327.229 92.3566 325.244 87.4 323.972C82.5772 322.736 82.929 321.452 88.1762 321.142C98.5733 320.523 109.684 329.109 109.684 337.758C109.684 339.371 107.699 344.37 104.685 350.348C97.2314 365.128 97.8019 368.475 108.083 370.286C115.473 371.587 118.016 374.162 118.016 380.338C118.016 386.696 116.207 388.491 109.86 388.429C107.243 388.357 102.838 387.664 100.072 386.787V386.787ZM242.232 386.331C241.215 384.778 240.703 382.545 240.744 379.845C240.801 376.323 241.186 375.389 243.415 373.397C244.849 372.115 247.446 370.838 249.184 370.557C255.18 369.591 256.144 369.263 257.783 367.623C260.397 365.01 259.766 361.891 254.429 351.047C248.718 339.443 248.131 335.654 251.314 330.932C255.478 324.753 262.669 320.984 270.261 321C274.301 321 277.53 322.251 275.237 322.914C274.562 323.107 271.869 323.894 269.251 324.658C263.145 326.44 259.429 329.973 259.429 333.995C259.429 337.71 261.522 341.738 266.954 348.48C272.788 355.721 274.395 359.419 274.372 365.561C274.338 375.126 270.702 381.091 262.425 385.165C258.287 387.202 255.609 387.89 250.44 388.244C243.835 388.7 243.771 388.685 242.232 386.331V386.331ZM120.83 478.497C118.022 478.071 116.149 477.481 114.216 476.42C110.054 474.133 106.983 470.2 105.618 465.409L105.197 463.935L105.147 426.992C105.09 386.755 105.051 388.489 106.143 385.363C107.787 380.658 111.794 375.439 116.55 373.739L139.057 373.648H189.3C223.681 373.648 240.082 373.72 241.249 373.856C247.932 374.648 253.72 379.403 255.816 385.822C256.725 388.607 256.719 388.316 256.656 427.278L256.599 463.943L256.179 465.418C254.372 471.76 249.685 476.411 243.395 478.105L241.819 478.531L181.563 478.603C148.422 478.603 121.093 478.603 120.833 478.531L120.83 478.497ZM226.239 461.486C229.6 460.633 232.261 459.118 234.725 456.653C240.28 451.098 241.734 442.866 238.402 435.831C235.981 430.72 231.766 427.235 226.171 425.719C223.922 425.108 219.618 425.1 217.337 425.719C211.536 427.249 206.742 431.413 204.597 436.785C203.607 439.262 203.372 440.556 203.365 443.58C203.357 446.884 203.755 448.747 205.06 451.501C207.748 457.176 212.877 460.945 219.284 461.953C221.014 462.225 224.203 462.025 226.239 461.497V461.486ZM219.02 453.792C217.076 453.28 215.879 452.582 214.335 451.049C212.206 448.934 211.215 446.587 211.215 443.659C211.215 440.838 212.158 438.505 214.155 436.388C216.191 434.229 218.729 433.142 221.731 433.142C224.676 433.142 226.96 434.105 229.14 436.264C231.884 438.981 232.881 442.707 231.855 446.411C231.323 448.332 230.523 449.677 229.04 451.144C226.395 453.761 222.663 454.747 219.02 453.792V453.792ZM126.988 460.637C127.3 460.459 127.748 460.032 127.983 459.679L128.409 459.046V443.706V428.364L127.996 427.627C127.201 426.213 125.15 425.726 123.879 426.651C123.609 426.844 123.197 427.383 122.962 427.842L122.536 428.676L122.538 443.464C122.538 453.125 122.609 458.497 122.736 458.961C123.259 460.845 125.247 461.628 126.989 460.637L126.988 460.637ZM138.789 460.565C140.136 459.746 140.063 460.716 140.063 443.645C140.063 429.435 140.033 428.252 139.734 427.696C138.649 425.712 135.792 425.664 134.697 427.609L134.283 428.345V443.629C134.283 456.387 134.326 458.999 134.549 459.426C135.387 461.036 137.206 461.523 138.788 460.563L138.789 460.565ZM149.537 460.963C149.954 460.85 150.495 460.572 150.74 460.351C151.756 459.418 151.716 460.094 151.716 443.639C151.716 426.408 151.806 427.47 150.261 426.564C149.256 425.973 148.111 426.016 147.183 426.677C145.869 427.613 145.942 426.677 145.885 443.23C145.851 453.733 145.893 458.394 146.044 458.944C146.345 460.063 147.387 460.935 148.685 461.154C148.735 461.154 149.121 461.075 149.537 460.962V460.963ZM162.043 460.627C162.356 460.457 162.803 459.93 163.038 459.47L163.464 458.628V443.645V428.661L163.038 427.827C162.431 426.639 161.767 426.212 160.527 426.212C159.387 426.212 158.73 426.582 158.017 427.631L157.59 428.257V443.489C157.59 459.72 157.575 459.468 158.499 460.289C159.471 461.156 160.86 461.287 162.044 460.626L162.043 460.627ZM173.697 460.627C173.958 460.442 174.362 460.016 174.597 459.67L175.023 459.044V443.674C175.023 426.251 175.125 427.397 173.493 426.544C172.036 425.782 170.343 426.279 169.578 427.708C169.28 428.263 169.255 429.55 169.256 443.664L169.258 459.018L169.667 459.673C170.547 461.088 172.409 461.528 173.697 460.626L173.697 460.627ZM185.35 460.627C185.663 460.457 186.112 459.93 186.348 459.463L186.778 458.616L186.728 443.327C186.678 428.222 186.671 428.034 186.287 427.516C185.564 426.549 184.931 426.212 183.835 426.212C182.695 426.212 182.037 426.582 181.324 427.631L180.898 428.257V443.489C180.898 459.72 180.883 459.468 181.807 460.289C182.779 461.156 184.168 461.287 185.351 460.626L185.35 460.627ZM178.623 397.032V385.378H160.433H122.535V397.032V408.685H160.433H178.623V397.032ZM239.259 397.032V385.378H221.731H184.497V397.032V408.685H221.731H239.259V397.032Z" fill="#B5B5B5"/>
</g>
<path d="M32.1879 204H35.6244C36.1928 204 36.726 203.93 37.224 203.789C37.7279 203.648 38.1879 203.446 38.6039 203.183C38.9613 202.96 39.2895 202.685 39.5883 202.356C39.8871 202.022 40.1479 201.659 40.3705 201.267C40.6049 200.827 40.7865 200.344 40.9154 199.816C41.0443 199.289 41.1088 198.729 41.1088 198.138V197.083C41.1088 196.468 41.0385 195.888 40.8979 195.343C40.7631 194.798 40.5697 194.3 40.3178 193.849C40.101 193.479 39.8461 193.14 39.5531 192.829C39.266 192.513 38.9379 192.246 38.5688 192.029C38.1469 191.766 37.6781 191.563 37.1625 191.423C36.6469 191.276 36.0932 191.203 35.5014 191.203H32.1879V204ZM34.6752 193.207H35.5014C35.8002 193.207 36.0756 193.242 36.3275 193.312C36.5854 193.377 36.8197 193.471 37.0307 193.594C37.3061 193.758 37.5463 193.969 37.7514 194.227C37.9623 194.484 38.1322 194.777 38.2611 195.105C38.3666 195.381 38.4457 195.686 38.4984 196.02C38.557 196.348 38.5863 196.696 38.5863 197.065V198.138C38.5863 198.53 38.557 198.896 38.4984 199.236C38.4457 199.57 38.3666 199.875 38.2611 200.15C38.1322 200.467 37.977 200.745 37.7953 200.985C37.6195 201.22 37.4203 201.413 37.1977 201.565C36.9809 201.712 36.7406 201.823 36.477 201.899C36.2133 201.976 35.9291 202.014 35.6244 202.014H34.6752V193.207ZM51.4433 204.176C52.3632 204.176 53.1601 203.997 53.834 203.64C54.5078 203.282 55 202.884 55.3105 202.444L54.0888 201.126C53.8076 201.489 53.4414 201.762 52.9902 201.943C52.539 202.125 52.0732 202.216 51.5927 202.216C51.2529 202.216 50.9394 202.163 50.6523 202.058C50.3652 201.952 50.1103 201.803 49.8877 201.609C49.6709 201.422 49.498 201.214 49.3691 200.985C49.2402 200.751 49.1347 200.443 49.0527 200.062V200.036H55.5039V198.999C55.5039 198.302 55.4072 197.666 55.2138 197.092C55.0205 196.512 54.7392 196.017 54.3701 195.606C53.9951 195.196 53.5381 194.88 52.999 194.657C52.4658 194.429 51.8564 194.314 51.1709 194.314C50.5088 194.314 49.8965 194.435 49.334 194.675C48.7715 194.915 48.2851 195.252 47.875 195.686C47.4648 196.119 47.1455 196.638 46.917 197.241C46.6884 197.839 46.5742 198.501 46.5742 199.228V199.579C46.5742 200.218 46.6884 200.818 46.917 201.381C47.1513 201.938 47.4824 202.421 47.9101 202.831C48.3379 203.247 48.8506 203.575 49.4482 203.815C50.0459 204.056 50.7109 204.176 51.4433 204.176ZM51.1533 196.292C51.4638 196.292 51.7363 196.342 51.9707 196.441C52.2109 196.535 52.4131 196.664 52.5771 196.828C52.7412 196.998 52.8701 197.197 52.9638 197.426C53.0576 197.654 53.1045 197.897 53.1045 198.155V198.349H49.0966C49.1552 198.038 49.2431 197.757 49.3603 197.505C49.4775 197.253 49.624 197.036 49.7998 196.854C49.9697 196.673 50.1689 196.535 50.3974 196.441C50.6259 196.342 50.8779 196.292 51.1533 196.292ZM64.3531 204H66.647L70.2593 194.49H67.7105L65.6275 201.196L65.4956 201.864L65.3638 201.196L63.272 194.49H60.7232L64.3531 204ZM76.4806 194.49V196.485H79.1876V202.014H76.4806V204H84.2325V202.014H81.6573V194.49H76.4806ZM79.0118 192.056C79.0118 192.243 79.044 192.419 79.1085 192.583C79.1788 192.741 79.2755 192.876 79.3985 192.987C79.5216 193.104 79.6681 193.195 79.838 193.26C80.0138 193.324 80.2071 193.356 80.4181 193.356C80.8516 193.356 81.1944 193.236 81.4464 192.996C81.7042 192.75 81.8331 192.437 81.8331 192.056C81.8331 191.675 81.7042 191.364 81.4464 191.124C81.1944 190.878 80.8516 190.755 80.4181 190.755C80.2071 190.755 80.0138 190.787 79.838 190.852C79.6681 190.916 79.5216 191.004 79.3985 191.115C79.2755 191.232 79.1788 191.373 79.1085 191.537C79.044 191.695 79.0118 191.868 79.0118 192.056ZM90.8405 190.5V192.495H93.6881V202.014H90.8405V204H98.8825V202.014H96.1579V190.5H90.8405ZM105.482 194.49V196.485H108.189V202.014H105.482V204H113.234V202.014H110.658V194.49H105.482ZM108.013 192.056C108.013 192.243 108.045 192.419 108.11 192.583C108.18 192.741 108.277 192.876 108.4 192.987C108.523 193.104 108.669 193.195 108.839 193.26C109.015 193.324 109.208 193.356 109.419 193.356C109.853 193.356 110.196 193.236 110.447 192.996C110.705 192.75 110.834 192.437 110.834 192.056C110.834 191.675 110.705 191.364 110.447 191.124C110.196 190.878 109.853 190.755 109.419 190.755C109.208 190.755 109.015 190.787 108.839 190.852C108.669 190.916 108.523 191.004 108.4 191.115C108.277 191.232 108.18 191.373 108.11 191.537C108.045 191.695 108.013 191.868 108.013 192.056ZM125.467 201.39C125.467 201.536 125.428 201.671 125.352 201.794C125.282 201.917 125.174 202.025 125.027 202.119C124.875 202.213 124.678 202.289 124.438 202.348C124.204 202.4 123.928 202.427 123.612 202.427C123.348 202.427 123.091 202.4 122.839 202.348C122.593 202.295 122.373 202.21 122.179 202.093C121.986 201.981 121.828 201.835 121.705 201.653C121.582 201.466 121.511 201.243 121.494 200.985H119.165C119.165 201.372 119.259 201.759 119.446 202.146C119.639 202.526 119.921 202.866 120.29 203.165C120.659 203.47 121.116 203.716 121.661 203.903C122.212 204.091 122.844 204.185 123.559 204.185C124.21 204.185 124.799 204.114 125.326 203.974C125.853 203.827 126.304 203.625 126.679 203.367C127.049 203.109 127.333 202.805 127.532 202.453C127.737 202.096 127.84 201.706 127.84 201.284C127.84 200.827 127.737 200.435 127.532 200.106C127.333 199.772 127.054 199.488 126.697 199.254C126.34 199.025 125.915 198.838 125.423 198.691C124.93 198.545 124.397 198.425 123.823 198.331C123.425 198.272 123.096 198.205 122.839 198.129C122.581 198.047 122.379 197.956 122.232 197.856C122.08 197.763 121.974 197.657 121.916 197.54C121.857 197.417 121.828 197.285 121.828 197.145C121.828 197.004 121.86 196.872 121.925 196.749C121.995 196.62 122.094 196.509 122.223 196.415C122.364 196.31 122.546 196.228 122.768 196.169C122.991 196.11 123.252 196.081 123.551 196.081C123.902 196.081 124.201 196.125 124.447 196.213C124.699 196.301 124.898 196.418 125.045 196.564C125.15 196.676 125.229 196.802 125.282 196.942C125.335 197.077 125.361 197.224 125.361 197.382H127.804C127.804 196.942 127.708 196.535 127.514 196.16C127.321 195.785 127.043 195.46 126.679 195.185C126.31 194.915 125.862 194.704 125.335 194.552C124.807 194.394 124.213 194.314 123.551 194.314C122.918 194.314 122.349 194.394 121.845 194.552C121.342 194.71 120.914 194.924 120.562 195.193C120.211 195.463 119.941 195.776 119.754 196.134C119.566 196.491 119.472 196.866 119.472 197.259C119.472 197.663 119.563 198.021 119.745 198.331C119.932 198.642 120.19 198.914 120.518 199.148C120.846 199.389 121.239 199.594 121.696 199.764C122.159 199.928 122.669 200.065 123.225 200.177C123.665 200.259 124.028 200.341 124.315 200.423C124.602 200.505 124.834 200.593 125.01 200.687C125.179 200.786 125.297 200.892 125.361 201.003C125.431 201.114 125.467 201.243 125.467 201.39ZM136.276 195.8V190.5H133.832V204H136.276V197.136C136.369 197.013 136.472 196.901 136.583 196.802C136.701 196.702 136.829 196.617 136.97 196.547C137.122 196.465 137.292 196.403 137.48 196.362C137.667 196.321 137.869 196.301 138.086 196.301C138.368 196.301 138.619 196.339 138.842 196.415C139.065 196.485 139.255 196.597 139.413 196.749C139.572 196.901 139.692 197.101 139.774 197.347C139.862 197.593 139.906 197.886 139.906 198.226V204H142.349V198.243C142.349 197.546 142.264 196.951 142.094 196.459C141.93 195.961 141.699 195.554 141.4 195.237C141.101 194.921 140.743 194.689 140.327 194.543C139.911 194.391 139.454 194.314 138.956 194.314C138.617 194.314 138.294 194.364 137.99 194.464C137.685 194.563 137.407 194.704 137.155 194.886C136.991 195.003 136.832 195.141 136.68 195.299C136.534 195.451 136.399 195.618 136.276 195.8ZM167.087 199.219L169.496 204H172.141V203.886L169.39 198.604C169.742 198.445 170.058 198.258 170.339 198.041C170.626 197.824 170.873 197.569 171.078 197.276C171.277 196.989 171.429 196.664 171.535 196.301C171.646 195.932 171.702 195.519 171.702 195.062C171.702 194.429 171.59 193.872 171.368 193.392C171.151 192.911 170.84 192.51 170.436 192.188C170.026 191.865 169.534 191.622 168.959 191.458C168.385 191.288 167.744 191.203 167.035 191.203H162.746V204H165.215V199.219H167.087ZM165.215 197.215V193.207H167.035C167.374 193.207 167.676 193.248 167.94 193.33C168.204 193.412 168.426 193.529 168.608 193.682C168.813 193.852 168.965 194.068 169.065 194.332C169.17 194.59 169.223 194.889 169.223 195.229C169.223 195.51 169.182 195.765 169.1 195.993C169.024 196.222 168.91 196.418 168.757 196.582C168.576 196.787 168.338 196.945 168.045 197.057C167.758 197.162 167.424 197.215 167.043 197.215H165.215ZM183.275 204H185.754V203.851C185.631 203.61 185.537 203.323 185.473 202.989C185.408 202.655 185.376 202.233 185.376 201.724V197.646C185.376 197.095 185.273 196.611 185.068 196.195C184.863 195.773 184.579 195.425 184.216 195.149C183.853 194.874 183.422 194.666 182.924 194.525C182.432 194.385 181.898 194.314 181.324 194.314C180.686 194.314 180.117 194.396 179.619 194.561C179.127 194.719 178.711 194.936 178.371 195.211C178.025 195.486 177.762 195.806 177.58 196.169C177.404 196.532 177.316 196.916 177.316 197.32H179.76C179.76 197.15 179.783 196.995 179.83 196.854C179.883 196.714 179.962 196.594 180.067 196.494C180.185 196.383 180.337 196.298 180.524 196.239C180.712 196.175 180.935 196.143 181.192 196.143C181.485 196.143 181.74 196.181 181.957 196.257C182.18 196.327 182.364 196.43 182.511 196.564C182.651 196.693 182.757 196.849 182.827 197.03C182.897 197.206 182.933 197.405 182.933 197.628V198.19H181.57C180.867 198.19 180.243 198.255 179.698 198.384C179.159 198.507 178.705 198.688 178.336 198.929C177.926 199.192 177.618 199.529 177.413 199.939C177.208 200.344 177.105 200.81 177.105 201.337C177.105 201.747 177.188 202.128 177.352 202.479C177.516 202.825 177.744 203.124 178.037 203.376C178.33 203.628 178.679 203.824 179.083 203.965C179.493 204.105 179.941 204.176 180.428 204.176C180.727 204.176 181.005 204.146 181.263 204.088C181.521 204.035 181.758 203.959 181.975 203.859C182.186 203.766 182.379 203.654 182.555 203.525C182.73 203.396 182.886 203.259 183.021 203.112C183.05 203.282 183.085 203.443 183.126 203.596C183.167 203.748 183.217 203.883 183.275 204ZM180.946 202.286C180.718 202.286 180.516 202.26 180.34 202.207C180.17 202.148 180.026 202.072 179.909 201.979C179.792 201.879 179.701 201.759 179.637 201.618C179.578 201.472 179.549 201.313 179.549 201.144C179.549 200.927 179.59 200.728 179.672 200.546C179.754 200.358 179.88 200.197 180.05 200.062C180.22 199.934 180.439 199.834 180.709 199.764C180.979 199.688 181.304 199.649 181.685 199.649H182.933V201.284C182.862 201.407 182.766 201.53 182.643 201.653C182.52 201.771 182.373 201.876 182.203 201.97C182.033 202.063 181.843 202.14 181.632 202.198C181.421 202.257 181.192 202.286 180.946 202.286ZM191.58 199.175V199.359C191.58 200.051 191.665 200.692 191.835 201.284C192.004 201.87 192.251 202.377 192.573 202.805C192.889 203.232 193.276 203.569 193.733 203.815C194.196 204.056 194.717 204.176 195.297 204.176C195.831 204.176 196.299 204.073 196.704 203.868C197.108 203.663 197.46 203.376 197.758 203.007L197.881 204H200.087V190.5H197.635V195.343C197.342 195.015 197.005 194.763 196.625 194.587C196.25 194.405 195.813 194.314 195.315 194.314C194.723 194.314 194.196 194.432 193.733 194.666C193.276 194.9 192.886 195.231 192.564 195.659C192.242 196.087 191.996 196.6 191.826 197.197C191.662 197.795 191.58 198.454 191.58 199.175ZM194.023 199.359V199.175C194.023 198.776 194.058 198.404 194.128 198.059C194.199 197.707 194.31 197.399 194.462 197.136C194.615 196.878 194.811 196.676 195.051 196.529C195.297 196.377 195.593 196.301 195.939 196.301C196.355 196.301 196.701 196.392 196.976 196.573C197.252 196.749 197.471 196.998 197.635 197.32V201.17C197.471 201.486 197.249 201.735 196.967 201.917C196.692 202.099 196.343 202.189 195.921 202.189C195.576 202.189 195.283 202.116 195.043 201.97C194.802 201.823 194.606 201.621 194.454 201.363C194.301 201.111 194.19 200.815 194.12 200.476C194.055 200.13 194.023 199.758 194.023 199.359ZM206.985 194.49V196.485H209.693V202.014H206.985V204H214.737V202.014H212.162V194.49H206.985ZM209.517 192.056C209.517 192.243 209.549 192.419 209.613 192.583C209.684 192.741 209.78 192.876 209.903 192.987C210.026 193.104 210.173 193.195 210.343 193.26C210.519 193.324 210.712 193.356 210.923 193.356C211.357 193.356 211.699 193.236 211.951 192.996C212.209 192.75 212.338 192.437 212.338 192.056C212.338 191.675 212.209 191.364 211.951 191.124C211.699 190.878 211.357 190.755 210.923 190.755C210.712 190.755 210.519 190.787 210.343 190.852C210.173 190.916 210.026 191.004 209.903 191.115C209.78 191.232 209.684 191.373 209.613 191.537C209.549 191.695 209.517 191.868 209.517 192.056ZM220.502 199.157V199.342C220.502 200.039 220.601 200.684 220.8 201.275C221 201.861 221.293 202.371 221.679 202.805C222.06 203.238 222.529 203.578 223.086 203.824C223.648 204.064 224.287 204.185 225.002 204.185C225.711 204.185 226.343 204.064 226.9 203.824C227.457 203.578 227.925 203.238 228.306 202.805C228.687 202.371 228.977 201.861 229.176 201.275C229.376 200.684 229.475 200.039 229.475 199.342V199.157C229.475 198.466 229.376 197.827 229.176 197.241C228.977 196.649 228.687 196.137 228.306 195.703C227.92 195.27 227.448 194.93 226.891 194.684C226.335 194.438 225.699 194.314 224.984 194.314C224.269 194.314 223.633 194.438 223.077 194.684C222.526 194.93 222.06 195.27 221.679 195.703C221.293 196.137 221 196.649 220.8 197.241C220.601 197.827 220.502 198.466 220.502 199.157ZM222.945 199.342V199.157C222.945 198.771 222.983 198.404 223.059 198.059C223.135 197.713 223.256 197.408 223.42 197.145C223.584 196.881 223.795 196.673 224.052 196.521C224.31 196.368 224.621 196.292 224.984 196.292C225.353 196.292 225.667 196.368 225.924 196.521C226.182 196.673 226.393 196.881 226.557 197.145C226.716 197.408 226.833 197.713 226.909 198.059C226.985 198.404 227.023 198.771 227.023 199.157V199.342C227.023 199.74 226.985 200.115 226.909 200.467C226.833 200.812 226.716 201.114 226.557 201.372C226.393 201.636 226.182 201.844 225.924 201.996C225.667 202.148 225.359 202.225 225.002 202.225C224.633 202.225 224.316 202.148 224.052 201.996C223.795 201.844 223.584 201.636 223.42 201.372C223.256 201.114 223.135 200.812 223.059 200.467C222.983 200.115 222.945 199.74 222.945 199.342ZM252.377 199.307H254.284C254.981 199.307 255.611 199.207 256.174 199.008C256.736 198.809 257.217 198.53 257.615 198.173C258.008 197.821 258.309 197.402 258.52 196.916C258.737 196.43 258.846 195.899 258.846 195.325C258.846 194.71 258.737 194.15 258.52 193.646C258.309 193.143 258.008 192.709 257.615 192.346C257.217 191.988 256.736 191.71 256.174 191.511C255.611 191.306 254.981 191.203 254.284 191.203H249.907V204H252.377V199.307ZM252.377 197.303V193.207H254.284C254.636 193.207 254.94 193.263 255.198 193.374C255.456 193.485 255.673 193.638 255.848 193.831C256.018 194.024 256.144 194.25 256.226 194.508C256.314 194.766 256.358 195.044 256.358 195.343C256.358 195.601 256.314 195.85 256.226 196.09C256.144 196.324 256.018 196.532 255.848 196.714C255.673 196.896 255.456 197.039 255.198 197.145C254.94 197.25 254.636 197.303 254.284 197.303H252.377ZM264.847 190.5V192.495H267.695V202.014H264.847V204H272.889V202.014H270.164V190.5H264.847ZM284.779 204H287.258V203.851C287.135 203.61 287.041 203.323 286.976 202.989C286.912 202.655 286.88 202.233 286.88 201.724V197.646C286.88 197.095 286.777 196.611 286.572 196.195C286.367 195.773 286.083 195.425 285.72 195.149C285.356 194.874 284.926 194.666 284.428 194.525C283.935 194.385 283.402 194.314 282.828 194.314C282.189 194.314 281.621 194.396 281.123 194.561C280.631 194.719 280.215 194.936 279.875 195.211C279.529 195.486 279.266 195.806 279.084 196.169C278.908 196.532 278.82 196.916 278.82 197.32H281.264C281.264 197.15 281.287 196.995 281.334 196.854C281.387 196.714 281.466 196.594 281.571 196.494C281.688 196.383 281.841 196.298 282.028 196.239C282.216 196.175 282.438 196.143 282.696 196.143C282.989 196.143 283.244 196.181 283.461 196.257C283.684 196.327 283.868 196.43 284.015 196.564C284.155 196.693 284.261 196.849 284.331 197.03C284.401 197.206 284.436 197.405 284.436 197.628V198.19H283.074C282.371 198.19 281.747 198.255 281.202 198.384C280.663 198.507 280.209 198.688 279.84 198.929C279.43 199.192 279.122 199.529 278.917 199.939C278.712 200.344 278.609 200.81 278.609 201.337C278.609 201.747 278.691 202.128 278.855 202.479C279.019 202.825 279.248 203.124 279.541 203.376C279.834 203.628 280.183 203.824 280.587 203.965C280.997 204.105 281.445 204.176 281.932 204.176C282.23 204.176 282.509 204.146 282.767 204.088C283.024 204.035 283.262 203.959 283.478 203.859C283.689 203.766 283.883 203.654 284.059 203.525C284.234 203.396 284.39 203.259 284.524 203.112C284.554 203.282 284.589 203.443 284.63 203.596C284.671 203.748 284.721 203.883 284.779 204ZM282.45 202.286C282.222 202.286 282.019 202.26 281.844 202.207C281.674 202.148 281.53 202.072 281.413 201.979C281.296 201.879 281.205 201.759 281.141 201.618C281.082 201.472 281.053 201.313 281.053 201.144C281.053 200.927 281.094 200.728 281.176 200.546C281.258 200.358 281.384 200.197 281.554 200.062C281.724 199.934 281.943 199.834 282.213 199.764C282.482 199.688 282.808 199.649 283.188 199.649H284.436V201.284C284.366 201.407 284.269 201.53 284.146 201.653C284.023 201.771 283.877 201.876 283.707 201.97C283.537 202.063 283.347 202.14 283.136 202.198C282.925 202.257 282.696 202.286 282.45 202.286ZM294.841 207.841C295.333 207.841 295.758 207.759 296.116 207.595C296.479 207.431 296.787 207.229 297.039 206.988C297.291 206.748 297.499 206.487 297.663 206.206C297.833 205.925 297.97 205.664 298.076 205.424L302.901 194.49H300.203L298.032 200.08L297.671 201.029L297.408 200.062L295.228 194.49H292.556L296.582 203.596L296.019 204.642C295.949 204.771 295.887 204.87 295.834 204.94C295.788 205.011 295.711 205.116 295.606 205.257C295.5 205.397 295.372 205.526 295.219 205.644C295.073 205.767 294.903 205.828 294.709 205.828C294.616 205.828 294.49 205.822 294.332 205.811C294.179 205.805 294.053 205.802 293.954 205.802L293.655 207.665C293.866 207.724 294.056 207.768 294.226 207.797C294.402 207.826 294.607 207.841 294.841 207.841ZM312.453 204.176C313.373 204.176 314.17 203.997 314.844 203.64C315.518 203.282 316.01 202.884 316.32 202.444L315.099 201.126C314.817 201.489 314.451 201.762 314 201.943C313.549 202.125 313.083 202.216 312.603 202.216C312.263 202.216 311.949 202.163 311.662 202.058C311.375 201.952 311.12 201.803 310.898 201.609C310.681 201.422 310.508 201.214 310.379 200.985C310.25 200.751 310.145 200.443 310.063 200.062V200.036H316.514V198.999C316.514 198.302 316.417 197.666 316.224 197.092C316.03 196.512 315.749 196.017 315.38 195.606C315.005 195.196 314.548 194.88 314.009 194.657C313.476 194.429 312.866 194.314 312.181 194.314C311.519 194.314 310.906 194.435 310.344 194.675C309.781 194.915 309.295 195.252 308.885 195.686C308.475 196.119 308.155 196.638 307.927 197.241C307.698 197.839 307.584 198.501 307.584 199.228V199.579C307.584 200.218 307.698 200.818 307.927 201.381C308.161 201.938 308.492 202.421 308.92 202.831C309.348 203.247 309.86 203.575 310.458 203.815C311.056 204.056 311.721 204.176 312.453 204.176ZM312.163 196.292C312.474 196.292 312.746 196.342 312.981 196.441C313.221 196.535 313.423 196.664 313.587 196.828C313.751 196.998 313.88 197.197 313.974 197.426C314.067 197.654 314.114 197.897 314.114 198.155V198.349H310.107C310.165 198.038 310.253 197.757 310.37 197.505C310.487 197.253 310.634 197.036 310.81 196.854C310.98 196.673 311.179 196.535 311.407 196.441C311.636 196.342 311.888 196.292 312.163 196.292ZM329.169 194.314C328.53 194.314 327.941 194.47 327.402 194.78C326.863 195.085 326.4 195.507 326.013 196.046L325.996 195.835L325.899 194.49H323.623V204H326.066V198.287C326.177 198.018 326.318 197.783 326.488 197.584C326.658 197.385 326.863 197.221 327.103 197.092C327.302 196.98 327.528 196.898 327.78 196.846C328.038 196.787 328.325 196.758 328.641 196.758C328.946 196.758 329.265 196.778 329.599 196.819C329.939 196.854 330.27 196.91 330.592 196.986L330.953 194.552C330.759 194.493 330.504 194.44 330.188 194.394C329.878 194.341 329.538 194.314 329.169 194.314Z" fill="#E5E5E5"/>
<defs>
<clipPath id="clip0_34_2">
<rect width="192" height="157.603" fill="white" transform="translate(84 321)"/>
</clipPath>
</defs>
</svg>
